<?xml version="1.0" encoding="UTF-8" standalone="no"?><!DOCTYPE svg PUBLIC "-//W3C//DTD SVG 1.1//EN" "http://www.w3.org/Graphics/SVG/1.1/DTD/svg11.dtd"><svg width="25px" height="25px" viewBox="0 0 25 25" version="1.1" xmlns="http://www.w3.org/2000/svg" xmlns:xlink="http://www.w3.org/1999/xlink" xml:space="preserve" style="fill-rule:evenodd;clip-rule:evenodd;stroke-linejoin:round;stroke-miterlimit:1.41421;"><g><path d="M25,4c0,-2.208 -1.792,-4 -4,-4l-17,0c-2.208,0 -4,1.792 -4,4l0,17c0,2.208 1.792,4 4,4l17,0c2.208,0 4,-1.792 4,-4l0,-17Z" style="fill:#cdcdcd;"/><g><path d="M22.535,11.772c0,-0.512 -0.416,-0.927 -0.927,-0.927l-18.216,0c-0.511,0 -0.927,0.415 -0.927,0.927l0,1.456c0,0.512 0.416,0.927 0.927,0.927l18.216,0c0.511,0 0.927,-0.415 0.927,-0.927l0,-1.456Z" style="fill:#fff;"/><path d="M11.772,2.465c-0.512,0 -0.927,0.416 -0.927,0.927l0,18.216c0,0.511 0.415,0.927 0.927,0.927l1.456,0c0.512,0 0.927,-0.416 0.927,-0.927l0,-18.216c0,-0.511 -0.415,-0.927 -0.927,-0.927l-1.456,0Z" style="fill:#fff;"/></g></g></svg>