<?xml version="1.0" encoding="UTF-8" standalone="no"?><!DOCTYPE svg PUBLIC "-//W3C//DTD SVG 1.1//EN" "http://www.w3.org/Graphics/SVG/1.1/DTD/svg11.dtd"><svg width="20px" height="20px" viewBox="0 0 174 174" version="1.1" xmlns="http://www.w3.org/2000/svg" xmlns:xlink="http://www.w3.org/1999/xlink" xml:space="preserve" style="fill-rule:evenodd;clip-rule:evenodd;stroke-linecap:round;stroke-linejoin:round;stroke-miterlimit:1.5;"><g><circle cx="86.542" cy="86.542" r="79" style="fill:none;stroke:#cdcdcd;stroke-width:15.08px;"/><circle cx="86.542" cy="90.735" r="5.274" style="fill:#cdcdcd;"/><path d="M146.934,81.808c-0.298,-2.015 -2.177,-3.41 -4.193,-3.112l-56.739,8.387c-2.016,0.297 -3.41,2.176 -3.112,4.192c0.298,2.016 2.176,3.41 4.192,3.112l56.739,-8.386c2.016,-0.298 3.411,-2.177 3.113,-4.193Z" style="fill:#cdcdcd;"/><path d="M86.542,49.653c-2.038,0 -3.692,1.654 -3.692,3.692l0,37.39c0,2.038 1.654,3.693 3.692,3.693c2.037,0 3.692,-1.655 3.692,-3.693l0,-37.39c0,-2.038 -1.655,-3.692 -3.692,-3.692Z" style="fill:#cdcdcd;"/></g></svg>